<mxfile host="Electron" modified="2023-08-13T05:42:06.553Z" agent="Mozilla/5.0 (Macintosh; Intel Mac OS X 10_15_7) AppleWebKit/537.36 (KHTML, like Gecko) draw.io/21.6.8 Chrome/114.0.5735.289 Electron/25.5.0 Safari/537.36" etag="4pWiFLVtmSmuLe21m7sd" version="21.6.8" type="device">
  <diagram name="Page-1" id="UJdjdJc1CFzYmF6SfQ5R">
    <mxGraphModel dx="954" dy="1781" grid="1" gridSize="10" guides="1" tooltips="1" connect="1" arrows="1" fold="1" page="1" pageScale="1" pageWidth="827" pageHeight="1169" math="0" shadow="0">
      <root>
        <mxCell id="0" />
        <mxCell id="1" parent="0" />
        <mxCell id="cV4WSlG5nZI4pS3KHBvr-5" style="edgeStyle=orthogonalEdgeStyle;rounded=0;orthogonalLoop=1;jettySize=auto;html=1;sourcePerimeterSpacing=10;targetPerimeterSpacing=-7;endSize=6;" edge="1" parent="1" source="cV4WSlG5nZI4pS3KHBvr-2" target="cV4WSlG5nZI4pS3KHBvr-6">
          <mxGeometry relative="1" as="geometry">
            <mxPoint x="95" y="200" as="targetPoint" />
          </mxGeometry>
        </mxCell>
        <mxCell id="cV4WSlG5nZI4pS3KHBvr-2" value="" style="html=1;verticalLabelPosition=bottom;align=center;labelBackgroundColor=#ffffff;verticalAlign=top;strokeWidth=2;strokeColor=#0080F0;shadow=0;dashed=0;shape=mxgraph.ios7.icons.data;" vertex="1" parent="1">
          <mxGeometry x="65" y="320" width="60" height="90" as="geometry" />
        </mxCell>
        <mxCell id="cV4WSlG5nZI4pS3KHBvr-3" value="Data Set (CSV)" style="text;html=1;align=center;verticalAlign=middle;resizable=0;points=[];autosize=1;strokeColor=none;fillColor=none;" vertex="1" parent="1">
          <mxGeometry x="40" y="410" width="110" height="30" as="geometry" />
        </mxCell>
        <mxCell id="cV4WSlG5nZI4pS3KHBvr-9" style="edgeStyle=orthogonalEdgeStyle;rounded=0;orthogonalLoop=1;jettySize=auto;html=1;entryX=0.02;entryY=0.463;entryDx=0;entryDy=0;entryPerimeter=0;sourcePerimeterSpacing=8;" edge="1" parent="1" source="cV4WSlG5nZI4pS3KHBvr-4" target="cV4WSlG5nZI4pS3KHBvr-8">
          <mxGeometry relative="1" as="geometry" />
        </mxCell>
        <mxCell id="cV4WSlG5nZI4pS3KHBvr-4" value="" style="outlineConnect=0;dashed=0;verticalLabelPosition=bottom;verticalAlign=top;align=center;html=1;shape=mxgraph.aws3.android;fillColor=#FFD44F;gradientColor=none;" vertex="1" parent="1">
          <mxGeometry x="58.25" y="80" width="73.5" height="84" as="geometry" />
        </mxCell>
        <mxCell id="cV4WSlG5nZI4pS3KHBvr-6" value="Python Pre-Processing" style="text;html=1;align=center;verticalAlign=middle;resizable=0;points=[];autosize=1;strokeColor=none;fillColor=none;" vertex="1" parent="1">
          <mxGeometry x="20" y="158" width="150" height="30" as="geometry" />
        </mxCell>
        <mxCell id="cV4WSlG5nZI4pS3KHBvr-8" value="&lt;font style=&quot;font-size: 18px;&quot;&gt;Producer&lt;/font&gt;" style="text;html=1;align=center;verticalAlign=middle;resizable=0;points=[];autosize=1;strokeColor=none;fillColor=none;" vertex="1" parent="1">
          <mxGeometry x="205" y="103" width="100" height="40" as="geometry" />
        </mxCell>
        <mxCell id="cV4WSlG5nZI4pS3KHBvr-17" value="VPC" style="points=[[0,0],[0.25,0],[0.5,0],[0.75,0],[1,0],[1,0.25],[1,0.5],[1,0.75],[1,1],[0.75,1],[0.5,1],[0.25,1],[0,1],[0,0.75],[0,0.5],[0,0.25]];outlineConnect=0;gradientColor=none;html=1;whiteSpace=wrap;fontSize=12;fontStyle=0;container=1;pointerEvents=0;collapsible=0;recursiveResize=0;shape=mxgraph.aws4.group;grIcon=mxgraph.aws4.group_vpc;strokeColor=#248814;fillColor=none;verticalAlign=top;align=left;spacingLeft=30;fontColor=#AAB7B8;dashed=0;" vertex="1" parent="1">
          <mxGeometry x="350" y="-70" width="970" height="429.5" as="geometry" />
        </mxCell>
        <mxCell id="cV4WSlG5nZI4pS3KHBvr-19" style="edgeStyle=orthogonalEdgeStyle;rounded=0;orthogonalLoop=1;jettySize=auto;html=1;entryX=0;entryY=0.5;entryDx=0;entryDy=0;entryPerimeter=0;endSize=6;targetPerimeterSpacing=0;" edge="1" parent="cV4WSlG5nZI4pS3KHBvr-17" source="cV4WSlG5nZI4pS3KHBvr-15" target="cV4WSlG5nZI4pS3KHBvr-18">
          <mxGeometry relative="1" as="geometry" />
        </mxCell>
        <mxCell id="cV4WSlG5nZI4pS3KHBvr-15" value="&lt;font style=&quot;font-size: 18px;&quot;&gt;Consumer&lt;/font&gt;" style="text;html=1;align=center;verticalAlign=middle;resizable=0;points=[];autosize=1;strokeColor=none;fillColor=none;" vertex="1" parent="cV4WSlG5nZI4pS3KHBvr-17">
          <mxGeometry x="350" y="173.5" width="110" height="40" as="geometry" />
        </mxCell>
        <mxCell id="cV4WSlG5nZI4pS3KHBvr-41" style="edgeStyle=orthogonalEdgeStyle;rounded=0;orthogonalLoop=1;jettySize=auto;html=1;targetPerimeterSpacing=10;sourcePerimeterSpacing=10;" edge="1" parent="cV4WSlG5nZI4pS3KHBvr-17" source="cV4WSlG5nZI4pS3KHBvr-18" target="cV4WSlG5nZI4pS3KHBvr-26">
          <mxGeometry relative="1" as="geometry" />
        </mxCell>
        <mxCell id="cV4WSlG5nZI4pS3KHBvr-18" value="" style="sketch=0;points=[[0,0,0],[0.25,0,0],[0.5,0,0],[0.75,0,0],[1,0,0],[0,1,0],[0.25,1,0],[0.5,1,0],[0.75,1,0],[1,1,0],[0,0.25,0],[0,0.5,0],[0,0.75,0],[1,0.25,0],[1,0.5,0],[1,0.75,0]];outlineConnect=0;fontColor=#232F3E;gradientColor=#60A337;gradientDirection=north;fillColor=#277116;strokeColor=#ffffff;dashed=0;verticalLabelPosition=bottom;verticalAlign=top;align=center;html=1;fontSize=12;fontStyle=0;aspect=fixed;shape=mxgraph.aws4.resourceIcon;resIcon=mxgraph.aws4.s3;" vertex="1" parent="cV4WSlG5nZI4pS3KHBvr-17">
          <mxGeometry x="540" y="154.5" width="78" height="78" as="geometry" />
        </mxCell>
        <mxCell id="cV4WSlG5nZI4pS3KHBvr-20" value="S3" style="text;html=1;align=center;verticalAlign=middle;resizable=0;points=[];autosize=1;strokeColor=none;fillColor=none;" vertex="1" parent="cV4WSlG5nZI4pS3KHBvr-17">
          <mxGeometry x="559" y="232.5" width="40" height="30" as="geometry" />
        </mxCell>
        <mxCell id="cV4WSlG5nZI4pS3KHBvr-42" value="" style="group" vertex="1" connectable="0" parent="cV4WSlG5nZI4pS3KHBvr-17">
          <mxGeometry x="729.0799999999999" y="20" width="199.5" height="360" as="geometry" />
        </mxCell>
        <mxCell id="cV4WSlG5nZI4pS3KHBvr-24" value="" style="sketch=0;outlineConnect=0;fontColor=#232F3E;gradientColor=none;fillColor=#4D27AA;strokeColor=none;dashed=0;verticalLabelPosition=bottom;verticalAlign=top;align=center;html=1;fontSize=12;fontStyle=0;aspect=fixed;pointerEvents=1;shape=mxgraph.aws4.glue_crawlers;" vertex="1" parent="cV4WSlG5nZI4pS3KHBvr-42">
          <mxGeometry x="76.67000000000007" y="20" width="48" height="48" as="geometry" />
        </mxCell>
        <mxCell id="cV4WSlG5nZI4pS3KHBvr-26" value="" style="sketch=0;outlineConnect=0;fontColor=#232F3E;gradientColor=none;fillColor=#4D27AA;strokeColor=none;dashed=0;verticalLabelPosition=bottom;verticalAlign=top;align=center;html=1;fontSize=12;fontStyle=0;aspect=fixed;pointerEvents=1;shape=mxgraph.aws4.glue_data_catalog;" vertex="1" parent="cV4WSlG5nZI4pS3KHBvr-42">
          <mxGeometry x="76.67000000000007" y="148.5" width="46.16" height="50" as="geometry" />
        </mxCell>
        <mxCell id="cV4WSlG5nZI4pS3KHBvr-30" style="edgeStyle=orthogonalEdgeStyle;rounded=0;orthogonalLoop=1;jettySize=auto;html=1;" edge="1" parent="cV4WSlG5nZI4pS3KHBvr-42" source="cV4WSlG5nZI4pS3KHBvr-29" target="cV4WSlG5nZI4pS3KHBvr-26">
          <mxGeometry relative="1" as="geometry" />
        </mxCell>
        <mxCell id="cV4WSlG5nZI4pS3KHBvr-29" value="Crawler" style="text;html=1;align=center;verticalAlign=middle;resizable=0;points=[];autosize=1;strokeColor=none;fillColor=none;" vertex="1" parent="cV4WSlG5nZI4pS3KHBvr-42">
          <mxGeometry x="70.67000000000007" y="60" width="60" height="30" as="geometry" />
        </mxCell>
        <mxCell id="cV4WSlG5nZI4pS3KHBvr-31" value="Data Catalog" style="text;html=1;align=center;verticalAlign=middle;resizable=0;points=[];autosize=1;strokeColor=none;fillColor=none;" vertex="1" parent="cV4WSlG5nZI4pS3KHBvr-42">
          <mxGeometry x="55.67000000000007" y="200" width="90" height="30" as="geometry" />
        </mxCell>
        <mxCell id="cV4WSlG5nZI4pS3KHBvr-32" value="" style="sketch=0;points=[[0,0,0],[0.25,0,0],[0.5,0,0],[0.75,0,0],[1,0,0],[0,1,0],[0.25,1,0],[0.5,1,0],[0.75,1,0],[1,1,0],[0,0.25,0],[0,0.5,0],[0,0.75,0],[1,0.25,0],[1,0.5,0],[1,0.75,0]];outlineConnect=0;fontColor=#232F3E;gradientColor=#945DF2;gradientDirection=north;fillColor=#5A30B5;strokeColor=#ffffff;dashed=0;verticalLabelPosition=bottom;verticalAlign=top;align=center;html=1;fontSize=12;fontStyle=0;aspect=fixed;shape=mxgraph.aws4.resourceIcon;resIcon=mxgraph.aws4.athena;" vertex="1" parent="cV4WSlG5nZI4pS3KHBvr-42">
          <mxGeometry x="75.67000000000007" y="270.5" width="50" height="50" as="geometry" />
        </mxCell>
        <mxCell id="cV4WSlG5nZI4pS3KHBvr-34" style="edgeStyle=orthogonalEdgeStyle;rounded=0;orthogonalLoop=1;jettySize=auto;html=1;entryX=0.5;entryY=0;entryDx=0;entryDy=0;entryPerimeter=0;" edge="1" parent="cV4WSlG5nZI4pS3KHBvr-42" source="cV4WSlG5nZI4pS3KHBvr-31" target="cV4WSlG5nZI4pS3KHBvr-32">
          <mxGeometry relative="1" as="geometry" />
        </mxCell>
        <mxCell id="cV4WSlG5nZI4pS3KHBvr-35" value="Athena" style="text;html=1;align=center;verticalAlign=middle;resizable=0;points=[];autosize=1;strokeColor=none;fillColor=none;" vertex="1" parent="cV4WSlG5nZI4pS3KHBvr-42">
          <mxGeometry x="70.67000000000007" y="320.5" width="60" height="30" as="geometry" />
        </mxCell>
        <mxCell id="cV4WSlG5nZI4pS3KHBvr-23" value="" style="rounded=1;arcSize=10;dashed=1;fillColor=none;gradientColor=none;dashPattern=8 3 1 3;strokeWidth=2;" vertex="1" parent="cV4WSlG5nZI4pS3KHBvr-42">
          <mxGeometry width="199.5" height="360" as="geometry" />
        </mxCell>
        <mxCell id="cV4WSlG5nZI4pS3KHBvr-16" style="edgeStyle=orthogonalEdgeStyle;rounded=0;orthogonalLoop=1;jettySize=auto;html=1;" edge="1" parent="cV4WSlG5nZI4pS3KHBvr-17" source="cV4WSlG5nZI4pS3KHBvr-12">
          <mxGeometry relative="1" as="geometry">
            <mxPoint x="345" y="193.5" as="targetPoint" />
          </mxGeometry>
        </mxCell>
        <mxCell id="cV4WSlG5nZI4pS3KHBvr-43" value="" style="group" vertex="1" connectable="0" parent="cV4WSlG5nZI4pS3KHBvr-17">
          <mxGeometry x="65" y="59.5" width="220" height="311" as="geometry" />
        </mxCell>
        <mxCell id="cV4WSlG5nZI4pS3KHBvr-14" value="EC2 instance contents" style="points=[[0,0],[0.25,0],[0.5,0],[0.75,0],[1,0],[1,0.25],[1,0.5],[1,0.75],[1,1],[0.75,1],[0.5,1],[0.25,1],[0,1],[0,0.75],[0,0.5],[0,0.25]];outlineConnect=0;gradientColor=none;html=1;whiteSpace=wrap;fontSize=12;fontStyle=0;container=0;pointerEvents=0;collapsible=0;recursiveResize=0;shape=mxgraph.aws4.group;grIcon=mxgraph.aws4.group_ec2_instance_contents;strokeColor=#D86613;fillColor=none;verticalAlign=top;align=left;spacingLeft=30;fontColor=#D86613;dashed=0;" vertex="1" parent="cV4WSlG5nZI4pS3KHBvr-43">
          <mxGeometry width="220" height="311" as="geometry" />
        </mxCell>
        <mxCell id="cV4WSlG5nZI4pS3KHBvr-7" value="" style="sketch=0;points=[[0,0,0],[0.25,0,0],[0.5,0,0],[0.75,0,0],[1,0,0],[0,1,0],[0.25,1,0],[0.5,1,0],[0.75,1,0],[1,1,0],[0,0.25,0],[0,0.5,0],[0,0.75,0],[1,0.25,0],[1,0.5,0],[1,0.75,0]];outlineConnect=0;fontColor=#232F3E;gradientColor=#945DF2;gradientDirection=north;fillColor=#5A30B5;strokeColor=#ffffff;dashed=0;verticalLabelPosition=bottom;verticalAlign=top;align=center;html=1;fontSize=12;fontStyle=0;aspect=fixed;shape=mxgraph.aws4.resourceIcon;resIcon=mxgraph.aws4.managed_streaming_for_kafka;container=0;" vertex="1" parent="cV4WSlG5nZI4pS3KHBvr-43">
          <mxGeometry x="72" y="36" width="78" height="78" as="geometry" />
        </mxCell>
        <mxCell id="cV4WSlG5nZI4pS3KHBvr-12" value="Apache kafka" style="text;html=1;align=center;verticalAlign=middle;resizable=0;points=[];autosize=1;strokeColor=none;fillColor=none;container=0;" vertex="1" parent="cV4WSlG5nZI4pS3KHBvr-43">
          <mxGeometry x="61" y="119" width="100" height="30" as="geometry" />
        </mxCell>
        <mxCell id="cV4WSlG5nZI4pS3KHBvr-13" value="Amazon EC2" style="sketch=0;outlineConnect=0;fontColor=#232F3E;gradientColor=none;strokeColor=#ffffff;fillColor=#232F3E;dashed=0;verticalLabelPosition=middle;verticalAlign=bottom;align=center;html=1;whiteSpace=wrap;fontSize=10;fontStyle=1;spacing=3;shape=mxgraph.aws4.productIcon;prIcon=mxgraph.aws4.ec2;container=0;" vertex="1" parent="cV4WSlG5nZI4pS3KHBvr-43">
          <mxGeometry x="72" y="171" width="80" height="100" as="geometry" />
        </mxCell>
        <mxCell id="cV4WSlG5nZI4pS3KHBvr-11" style="edgeStyle=orthogonalEdgeStyle;rounded=0;orthogonalLoop=1;jettySize=auto;html=1;" edge="1" parent="1" source="cV4WSlG5nZI4pS3KHBvr-8" target="cV4WSlG5nZI4pS3KHBvr-12">
          <mxGeometry relative="1" as="geometry">
            <mxPoint x="420" y="123" as="targetPoint" />
          </mxGeometry>
        </mxCell>
      </root>
    </mxGraphModel>
  </diagram>
</mxfile>
